<svg width="278" height="278" viewBox="0 0 278 278" fill="none" xmlns="http://www.w3.org/2000/svg">
<path d="M170.363 3.92828C171.354 4.16176 171.354 4.16176 172.366 4.39996C206.186 12.451 236.396 34.7175 254.98 63.9752C273.868 94.7381 282.321 133.043 273.954 168.64C268.167 191.049 258.419 211.261 243.363 228.928C242.562 229.876 241.762 230.823 240.937 231.799C219.622 256.083 187.992 273.38 155.651 276.783C139.245 277.828 122.36 277.998 106.363 273.928C105.702 273.773 105.04 273.617 104.359 273.457C86.606 269.23 69.7677 261.108 55.3627 249.928C54.4243 249.21 53.4859 248.492 52.519 247.753C26.5391 227.209 9.1916 199.382 2.36274 166.928C2.09892 165.683 2.09892 165.683 1.82978 164.412C0.298558 156.397 0.0226335 148.504 0.0470635 140.376C0.0502137 138.195 0.0267032 136.015 0.00140924 133.835C-0.0580388 120.827 1.76023 108.261 6.05024 95.9283C6.30515 95.1847 6.56006 94.441 6.8227 93.6749C9.64457 85.7301 13.2473 78.2771 17.3627 70.9283C17.7391 70.2552 18.1156 69.5822 18.5034 68.8887C23.9641 59.2983 30.2092 51.1444 37.9858 43.3243C39.2153 42.0778 40.4089 40.7962 41.5971 39.5103C73.2212 5.92454 126.126 -7.32528 170.363 3.92828ZM48.3627 45.9283C47.4539 46.7726 46.5452 47.617 45.6088 48.4869C38.7321 55.0767 33.4692 61.9039 28.3627 69.9283C27.7582 70.8371 27.1536 71.7459 26.5307 72.6822C9.5299 99.6609 4.55779 134.891 11.2651 165.87C11.6199 167.226 11.9866 168.578 12.3627 169.928C12.5885 170.74 12.8142 171.552 13.0468 172.389C16.6865 185.025 21.5156 196.695 28.3627 207.928C28.7267 208.527 29.0907 209.125 29.4658 209.741C47.3781 238.393 77.3678 257.655 109.817 265.369C134.685 270.982 160.514 268.493 184.363 259.928C185.397 259.56 186.43 259.191 187.496 258.811C199.962 253.991 211.301 246.673 221.363 237.928C222.193 237.219 223.023 236.51 223.878 235.78C248.977 213.838 264.577 183.247 267.363 149.928C269.462 112.116 257.509 78.4644 232.39 50.2134C211.084 26.8128 179.523 11.353 147.784 9.80231C109.581 8.74397 76.4122 19.3482 48.3627 45.9283Z" fill="#131313"/>
<path d="M107.78 84.6404C108.509 84.6337 109.238 84.6269 109.99 84.62C112.391 84.6011 114.793 84.5971 117.195 84.595C118.872 84.5885 120.55 84.5818 122.228 84.5748C125.742 84.5628 129.257 84.5591 132.771 84.5603C137.26 84.5605 141.748 84.5332 146.237 84.4987C149.702 84.4764 153.167 84.4725 156.633 84.4735C158.287 84.4712 159.941 84.4624 161.595 84.4468C177.513 84.3114 177.513 84.3114 184.363 88.9309C184.363 89.5909 184.363 90.2509 184.363 90.9309C185.023 90.9309 185.683 90.9309 186.363 90.9309C190.328 97.4544 191.48 102.07 191.524 109.797C191.531 110.803 191.531 110.803 191.539 111.83C191.553 114.037 191.56 116.243 191.566 118.45C191.57 119.587 191.57 119.587 191.574 120.747C191.589 124.756 191.599 128.766 191.603 132.776C191.608 136.901 191.632 141.027 191.661 145.152C191.68 148.339 191.685 151.527 191.686 154.714C191.689 156.234 191.697 157.754 191.711 159.274C191.851 176.662 191.851 176.662 186.531 183.173C185.877 183.712 185.224 184.251 184.55 184.806C183.582 185.637 183.582 185.637 182.593 186.486C177.72 189.643 173.003 190.184 167.291 190.206C166.61 190.211 165.93 190.216 165.229 190.221C162.995 190.235 160.761 190.234 158.527 190.232C156.963 190.236 155.399 190.24 153.835 190.245C150.561 190.252 147.288 190.252 144.015 190.247C139.837 190.241 135.659 190.258 131.481 190.281C128.251 190.296 125.022 190.297 121.793 190.293C120.253 190.294 118.714 190.299 117.174 190.309C98.5931 190.416 98.5931 190.416 90.9877 183.556C90.0171 182.709 90.0171 182.709 89.0268 181.845C85.2744 177.529 85.1049 173.162 85.0722 167.605C85.0655 166.886 85.0588 166.167 85.0519 165.425C85.0329 163.056 85.029 160.687 85.0268 158.318C85.0204 156.662 85.0137 155.007 85.0066 153.352C84.9947 149.885 84.991 146.417 84.9921 142.95C84.9923 138.521 84.9651 134.094 84.9306 129.665C84.9083 126.246 84.9043 122.828 84.9054 119.409C84.903 117.777 84.8942 116.145 84.8787 114.514C84.7264 96.8544 84.7264 96.8544 90.7748 90.4314C96.0994 85.6302 100.765 84.681 107.78 84.6404ZM93.3628 97.9309C92.11 100.436 92.2425 102.128 92.2492 104.931C92.2493 105.972 92.2494 107.013 92.2495 108.086C92.2546 109.213 92.2598 110.34 92.2651 111.501C92.2665 112.653 92.2679 113.804 92.2694 114.99C92.275 118.679 92.2875 122.367 92.3002 126.056C92.3053 128.552 92.3098 131.048 92.3139 133.544C92.325 139.673 92.3417 145.802 92.3627 151.931C96.0686 148.225 97.6374 142.866 99.6955 138.092C100.545 136.131 101.413 134.178 102.283 132.226C102.825 130.976 103.366 129.725 103.906 128.474C104.401 127.34 104.896 126.206 105.406 125.037C106.422 121.739 106.345 120.181 105.363 116.931C104.761 112.391 104.767 109.798 107.425 105.931C111.125 103.412 112.966 103.224 117.363 103.931C120.238 105.368 120.238 105.368 122.363 107.931C122.644 109.954 122.644 109.954 122.738 112.243C122.968 116.134 123.74 117.902 126.488 120.681C127.76 121.787 129.051 122.871 130.363 123.931C130.925 124.452 131.487 124.972 132.066 125.509C135.184 128.161 137.661 129.349 141.8 129.306C146.976 128.397 149.677 125.178 153.027 121.353C154.619 119.011 154.619 119.011 154.097 116.349C153.855 115.551 153.612 114.753 153.363 113.931C152.717 108.009 152.717 108.009 154.41 105.185C156.194 102.997 157.818 101.203 160.363 99.9309C166.467 99.4222 169.47 99.8739 174.363 103.931C176.45 108.106 175.711 113.442 174.675 117.868C172.853 120.732 171.672 121.156 168.363 121.931C166.925 121.788 165.487 121.642 164.05 121.493C159.826 121.437 157.851 122.594 154.8 125.493C150.714 130.744 150.087 135.572 150.456 142.118C152.093 149.004 155.85 153.607 161.363 157.931C164.082 158.915 166.418 159.332 169.285 159.607C171.363 159.931 171.363 159.931 173.55 162.056C174.652 165.956 174.792 169.099 173.363 172.931C170.738 175.493 170.738 175.493 167.363 176.931C163.659 176.867 161.347 176.738 158.445 174.358C155.842 172.574 154.761 172.712 151.679 173.154C150.761 173.278 149.842 173.403 148.896 173.531C147.916 173.684 146.935 173.836 145.925 173.993C144.413 174.21 144.413 174.21 142.87 174.43C132.641 175.938 122.493 177.871 112.363 179.931C112.363 180.921 112.363 181.911 112.363 182.931C120.473 183.024 128.584 183.095 136.694 183.138C140.461 183.159 144.227 183.187 147.994 183.233C151.631 183.276 155.268 183.3 158.906 183.31C160.291 183.318 161.676 183.332 163.061 183.354C171.361 183.773 171.361 183.773 179.073 181.281C183.641 176.592 184.738 172.249 184.735 165.812C184.739 165.126 184.742 164.441 184.746 163.735C184.754 161.486 184.741 159.238 184.726 156.989C184.726 155.418 184.726 153.847 184.728 152.276C184.727 148.99 184.717 145.704 184.699 142.418C184.676 138.213 184.676 134.008 184.682 129.802C184.686 126.56 184.679 123.319 184.669 120.077C184.665 118.526 184.664 116.976 184.666 115.425C184.666 113.257 184.654 111.089 184.637 108.921C184.633 107.689 184.628 106.457 184.623 105.187C184.219 100.129 183.245 97.8522 179.709 94.1598C176.207 91.4568 173.241 91.2916 168.816 91.2681C167.72 91.2525 167.72 91.2525 166.601 91.2366C164.2 91.2097 161.8 91.2192 159.398 91.2317C157.719 91.2258 156.041 91.2185 154.362 91.21C150.849 91.1981 147.337 91.2048 143.824 91.2241C139.333 91.247 134.845 91.2202 130.354 91.179C126.889 91.1534 123.424 91.1561 119.959 91.1669C118.304 91.1684 116.649 91.1608 114.994 91.1437C102.766 90.8232 102.766 90.8232 93.3628 97.9309ZM112.363 122.931C110.495 125.682 110.495 125.682 109.101 129.197C108.824 129.827 108.548 130.457 108.262 131.107C107.382 133.124 106.529 135.152 105.675 137.181C105.09 138.532 104.504 139.882 103.915 141.232C101.657 146.435 99.4497 151.656 97.3628 156.931C99.3428 158.581 101.323 160.231 103.363 161.931C108.466 160.287 112.442 157.224 116.738 154.118C117.467 153.597 118.197 153.076 118.949 152.538C120.395 151.504 121.839 150.464 123.279 149.42C124.637 148.449 126.012 147.499 127.402 146.574C129.923 144.881 132.035 143.443 133.687 140.861C134.17 138.129 134.207 136.613 133.363 133.931C129.531 129.331 124.882 124.41 119.281 122.056C116.63 121.883 114.899 122.048 112.363 122.931ZM124.093 155.507C121.21 157.879 118.138 159.962 115.05 162.056C113.416 163.174 113.416 163.174 111.749 164.314C110.568 165.114 110.568 165.114 109.363 165.931C109.693 168.241 110.023 170.551 110.363 172.931C113.394 173.941 114.406 173.947 117.435 173.449C118.249 173.319 119.064 173.188 119.902 173.054C120.778 172.905 121.653 172.756 122.554 172.603C123.455 172.453 124.356 172.303 125.285 172.149C127.189 171.83 129.093 171.507 130.996 171.18C133.915 170.683 136.837 170.207 139.759 169.732C141.608 169.419 143.456 169.105 145.304 168.79C146.181 168.65 147.058 168.509 147.962 168.364C149.179 168.149 149.179 168.149 150.42 167.93C151.135 167.809 151.849 167.689 152.586 167.564C154.754 166.991 154.754 166.991 156.363 163.931C156.096 160.072 153.817 157.704 151.425 154.806C150.715 153.937 150.005 153.068 149.273 152.173C145.775 148.068 143.701 146.902 138.332 146.454C132.551 147.382 128.414 151.805 124.093 155.507Z" fill="#1F3D56"/>
<path d="M197.809 65.1617C213.181 78.1002 223.605 93.65 229.363 112.93C229.683 113.946 230.003 114.962 230.332 116.008C236.779 140.245 232.117 165.5 220.051 187.055C216.607 192.761 212.757 197.924 208.363 202.93C207.71 203.679 207.056 204.428 206.383 205.2C192.075 220.528 170.197 231.662 149.204 233.155C122.756 234.035 100.237 230.221 79.3631 212.93C78.5136 212.232 77.6641 211.533 76.7889 210.813C59.9707 196.339 47.5895 175.722 44.6092 153.477C43.6613 139.815 43.2617 126.12 47.3631 112.93C47.6532 111.986 47.6532 111.986 47.9491 111.024C52.6701 96.0773 60.4405 84.1881 71.3631 72.9302C71.9741 72.2458 72.5852 71.5613 73.2147 70.856C104.721 36.7352 162.991 36.9823 197.809 65.1617ZM70.6131 82.1802C54.7433 102.593 48.2857 125.703 51.0506 151.305C54.4932 174.681 66.6143 195.464 85.3006 209.868C105.187 223.897 128.272 229.655 152.476 226.469C176.009 222.245 195.612 209.685 210.301 190.973C224.478 170.056 229.43 145.784 224.771 121.032C220.168 98.9753 206.932 78.6323 188.167 66.0635C149.999 42.0822 100.524 47.3613 70.6131 82.1802Z" fill="#1B1B1B"/>
<path d="M168.363 98.9314C172.115 100.946 174 102.386 176.363 105.931C176.97 110.141 176.801 113.871 175.176 117.806C172.981 120.38 171.512 121.631 168.363 122.931C166.002 123.083 163.714 123.058 161.351 122.939C159.287 122.782 159.287 122.782 157.363 123.931C157.26 123.148 157.157 122.364 157.051 121.556C156.587 118.601 156.587 118.601 153.363 116.931C152.128 113.225 151.908 110.834 152.363 106.931C156.515 100.467 160.514 97.8518 168.363 98.9314Z" fill="#11955F"/>
<path d="M70.5508 35.2421C71.448 35.5824 71.448 35.5824 72.3633 35.9296C72.4045 36.6102 72.4458 37.2909 72.4883 37.9921C73.7411 42.1979 76.171 44.9664 79.3633 47.9296C82.0481 49.3939 82.0481 49.3939 84.3633 49.9296C82.7133 51.9096 81.0633 53.8896 79.3633 55.9296C78.0433 55.5996 76.7233 55.2696 75.3633 54.9296C75.2395 54.1252 75.1158 53.3209 74.9883 52.4921C74.782 51.6465 74.5758 50.8009 74.3633 49.9296C73.7033 49.5996 73.0433 49.2696 72.3633 48.9296C73.3533 52.2296 74.3433 55.5296 75.3633 58.9296C71.3633 59.9296 71.3633 59.9296 69.0039 58.9335C68.215 58.4579 67.4261 57.9822 66.6133 57.4921C65.8141 57.019 65.0148 56.5459 64.1914 56.0585C63.5881 55.686 62.9848 55.3134 62.3633 54.9296C64.874 58.5985 64.874 58.5985 68.6133 60.7421C69.4795 60.8349 69.4795 60.8349 70.3633 60.9296C68.9107 64.7591 66.9343 66.0501 63.3633 67.9296C62.992 66.919 62.6208 65.9084 62.2383 64.8671C60.4176 60.6304 57.8619 56.9578 54.3633 53.9296C52.2584 53.2055 52.2584 53.2055 50.3633 52.9296C51.515 50.4616 52.4111 48.8818 54.3633 46.9296C58.1407 47.2788 60.9271 48.6011 64.1758 50.4921C64.966 50.9472 65.7562 51.4022 66.5703 51.871C67.162 52.2204 67.7537 52.5697 68.3633 52.9296C68.0629 52.182 67.7626 51.4343 67.4531 50.664C67.0729 49.6791 66.6926 48.6943 66.3008 47.6796C65.9179 46.7051 65.5351 45.7306 65.1406 44.7265C64.3431 41.857 64.2736 40.6478 65.3633 37.9296C67.6133 34.8225 67.6133 34.8225 70.5508 35.2421Z" fill="#636363"/>
<path d="M52.3633 191.93C54.0133 193.58 55.6633 195.23 57.3633 196.93C57.1467 197.617 56.9302 198.304 56.707 199.012C56.4286 199.913 56.1502 200.814 55.8633 201.742C55.5848 202.636 55.3064 203.529 55.0195 204.449C54.2354 206.985 54.2354 206.985 54.3633 209.93C57.4753 207.945 57.4753 207.945 59.1133 204.742C59.1958 204.144 59.2783 203.546 59.3633 202.93C63.1927 204.382 64.4838 206.359 66.3633 209.93C65.4145 210.26 64.4658 210.59 63.4883 210.93C58.8439 212.863 55.3503 216.096 51.5977 219.383C50.8603 219.893 50.123 220.404 49.3633 220.93C46.3633 219.93 46.3633 219.93 45.5234 218.258C45.2943 214.928 46.4508 212.709 47.8008 209.68C48.2739 208.602 48.747 207.524 49.2344 206.414C49.6069 205.594 49.9795 204.774 50.3633 203.93C45.4077 207.66 45.4077 207.66 42.3633 212.93C37.5633 209.484 37.5633 209.484 36.5508 206.68C36.458 205.813 36.458 205.813 36.3633 204.93C37.2089 204.723 38.0545 204.517 38.9258 204.305C42.7021 202.794 44.9235 200.925 47.8477 198.172C49.3633 196.93 49.3633 196.93 51.3633 196.93C51.0333 195.94 50.7033 194.95 50.3633 193.93C51.0233 193.27 51.6833 192.61 52.3633 191.93Z" fill="#626262"/>
<path d="M146.363 13.9297C156.12 14.2714 156.12 14.2714 160.551 16.6172C162.363 18.9297 162.363 18.9297 162.801 21.9922C162.363 24.9297 162.363 24.9297 160.363 27.9297C160.952 30.2839 161.621 32.6194 162.363 34.9297C162.363 35.9197 162.363 36.9097 162.363 37.9297C157.488 37.0547 157.488 37.0547 156.363 35.9297C156.322 33.5967 156.321 31.2626 156.363 28.9297C154.713 28.5997 153.063 28.2697 151.363 27.9297C151.27 31.2699 151.535 33.6173 152.363 36.9297C149.393 36.5997 146.423 36.2697 143.363 35.9297C143.363 34.6097 143.363 33.2897 143.363 31.9297C144.023 31.9297 144.683 31.9297 145.363 31.9297C146.023 26.9797 146.683 22.0297 147.363 16.9297C146.703 16.9297 146.043 16.9297 145.363 16.9297C145.693 15.9397 146.023 14.9497 146.363 13.9297ZM152.363 18.9297C152.033 20.5797 151.703 22.2297 151.363 23.9297C153.838 24.4247 153.838 24.4247 156.363 24.9297C157.023 23.6097 157.683 22.2897 158.363 20.9297C157.703 20.2697 157.043 19.6097 156.363 18.9297C155.043 18.9297 153.723 18.9297 152.363 18.9297Z" fill="#646464"/>
<path d="M187.363 229.931C189.301 231.681 189.301 231.681 190.363 233.931C190.051 236.681 190.051 236.681 189.363 238.931C190.683 239.261 192.003 239.591 193.363 239.931C193.466 240.57 193.57 241.209 193.676 241.868C193.903 242.549 194.13 243.229 194.363 243.931C195.353 244.261 196.343 244.591 197.363 244.931C196.113 246.493 196.113 246.493 194.363 247.931C192.301 247.868 192.301 247.868 190.363 246.931C189.113 244.868 189.113 244.868 188.363 242.931C186.383 242.931 184.403 242.931 182.363 242.931C183.154 244.931 183.154 244.931 184.363 246.931C185.353 247.261 186.343 247.591 187.363 247.931C187.363 248.921 187.363 249.911 187.363 250.931C184.551 252.493 184.551 252.493 181.363 253.931C180.373 253.601 179.383 253.271 178.363 252.931C178.446 252.126 178.528 251.322 178.613 250.493C178.288 245.853 176.847 241.877 174.363 237.931C173.373 237.601 172.383 237.271 171.363 236.931C171.033 235.941 170.703 234.951 170.363 233.931C182.314 227.785 182.314 227.785 187.363 229.931ZM182.363 232.931C181.373 233.261 180.383 233.591 179.363 233.931C179.693 235.911 180.023 237.891 180.363 239.931C182.013 239.271 183.663 238.611 185.363 237.931C185.015 235.955 185.015 235.955 184.363 233.931C183.703 233.601 183.043 233.271 182.363 232.931Z" fill="#646464"/>
<path d="M70.3633 214.93C73.741 215.545 75.8395 216.787 78.5508 218.867C79.2456 219.392 79.9404 219.916 80.6562 220.457C82.3633 221.93 82.3633 221.93 83.3633 223.93C83.4953 228.729 83.0575 232.048 80.0508 235.867C74.5742 240.07 74.5742 240.07 71.0391 239.66C68.0487 238.844 66.0812 237.642 63.5508 235.867C62.7606 235.319 61.9704 234.771 61.1562 234.207C60.5646 233.786 59.9729 233.364 59.3633 232.93C59.6933 231.94 60.0233 230.95 60.3633 229.93C60.9769 229.628 61.5905 229.326 62.2227 229.016C64.9341 227.64 65.9519 226.08 67.6133 223.555C68.1341 222.784 68.6548 222.013 69.1914 221.219C70.6671 218.765 70.6671 218.765 70.3633 214.93ZM74.3633 221.93C72.5422 224.104 72.5422 224.104 70.7383 226.805C69.7908 228.162 69.7908 228.162 68.8242 229.547C67.1891 231.748 67.1891 231.748 67.3633 233.93C70.6627 234.866 70.6627 234.866 74.3633 234.93C77.0106 232.561 78.1129 230.631 79.3008 227.305C79.6053 224.878 79.6053 224.878 78.0508 223.117C76.4346 221.738 76.4346 221.738 74.3633 221.93Z" fill="#646464"/>
<path d="M196.363 28.9297C201.363 30.9297 201.363 30.9297 204.363 32.9297C204.033 33.9197 203.703 34.9097 203.363 35.9297C202.703 35.9297 202.043 35.9297 201.363 35.9297C201.693 37.2497 202.023 38.5697 202.363 39.9297C205.612 38.2074 205.612 38.2074 206.363 34.9297C208.673 36.2497 210.983 37.5697 213.363 38.9297C213.363 39.9197 213.363 40.9097 213.363 41.9297C208.413 43.4147 208.413 43.4147 203.363 44.9297C203.363 49.2197 203.363 53.5097 203.363 57.9297C198.363 55.9297 198.363 55.9297 195.363 53.9297C195.693 52.9397 196.023 51.9497 196.363 50.9297C197.023 50.9297 197.683 50.9297 198.363 50.9297C198.363 49.2797 198.363 47.6297 198.363 45.9297C196.363 46.7209 196.363 46.7209 194.363 47.9297C194.033 48.9197 193.703 49.9097 193.363 50.9297C189.567 50.3874 187.891 48.7284 185.363 45.9297C186.987 45.2588 188.612 44.5931 190.238 43.9297C191.143 43.5584 192.048 43.1872 192.98 42.8047C195.363 41.9297 195.363 41.9297 197.363 41.9297C197.033 37.6397 196.703 33.3497 196.363 28.9297Z" fill="#636363"/>
<path d="M93.3637 228.93C96.3337 229.92 99.3037 230.91 102.364 231.93C102.034 232.92 101.704 233.91 101.364 234.93C100.374 234.93 99.3837 234.93 98.3637 234.93C97.8344 236.886 97.3155 238.845 96.8012 240.805C96.5112 241.895 96.2212 242.986 95.9223 244.109C95.077 246.867 95.077 246.867 96.3637 248.93C98.0137 248.93 99.6637 248.93 101.364 248.93C102.038 247.016 102.703 245.098 103.364 243.18C103.735 242.112 104.106 241.045 104.489 239.945C105.55 236.813 105.55 236.813 105.364 232.93C108.004 233.92 110.644 234.91 113.364 235.93C113.364 236.92 113.364 237.91 113.364 238.93C112.374 238.93 111.384 238.93 110.364 238.93C110.261 239.61 110.157 240.291 110.051 240.992C109.048 245.278 107.505 249.16 105.114 252.867C102.176 254.651 99.7075 254.276 96.3637 253.93C91.7637 251.73 91.7637 251.73 90.3637 248.93C89.9381 243.716 90.8682 239.837 92.7075 235.043C93.5615 232.662 93.5615 232.662 93.3637 228.93Z" fill="#656565"/>
<path d="M218.363 198.93C220.838 199.92 220.838 199.92 223.363 200.93C223.363 201.92 223.363 202.91 223.363 203.93C222.58 204.198 221.796 204.466 220.988 204.742C218.082 205.778 218.082 205.778 216.363 208.93C217.353 209.59 218.343 210.25 219.363 210.93C220.683 209.61 222.003 208.29 223.363 206.93C224.353 207.26 225.343 207.59 226.363 207.93C226.054 208.528 225.745 209.126 225.426 209.742C224.261 212.019 224.261 212.019 223.363 214.93C224.353 215.59 225.343 216.25 226.363 216.93C228.517 214.308 229.764 212.286 230.363 208.93C231.683 209.59 233.003 210.25 234.363 210.93C234.363 215.92 233.049 216.962 229.863 220.68C228.61 222.157 228.61 222.157 227.332 223.664C226.682 224.412 226.033 225.159 225.363 225.93C224.373 225.6 223.383 225.27 222.363 224.93C222.156 224.038 222.156 224.038 221.945 223.129C221.127 220.036 219.439 218.825 217.051 216.742C216.271 216.047 215.491 215.353 214.688 214.637C212.47 213.008 211.047 212.341 208.363 211.93C210.99 206.985 214.63 203.052 218.363 198.93Z" fill="#656565"/>
<path d="M95.3633 22.9297C97.1445 24.5039 97.1445 24.5039 98.8633 26.6172C99.4666 27.3442 100.07 28.0713 100.691 28.8203C102.015 30.49 103.318 32.1758 104.613 33.8672C106.277 36.189 106.277 36.189 109.363 36.9297C109.363 37.9197 109.363 38.9097 109.363 39.9297C107.111 41.2971 105.838 41.9704 103.176 41.7422C102.578 41.4741 101.98 41.2059 101.363 40.9297C101.033 39.9397 100.703 38.9497 100.363 37.9297C98.7133 38.2597 97.0633 38.5897 95.3633 38.9297C95.3633 39.9197 95.3633 40.9097 95.3633 41.9297C96.0233 41.9297 96.6833 41.9297 97.3633 41.9297C97.3633 42.9197 97.3633 43.9097 97.3633 44.9297C95.6133 45.9922 95.6133 45.9922 93.3633 46.9297C92.0433 46.5997 90.7233 46.2697 89.3633 45.9297C89.3633 38.6697 89.3633 31.4097 89.3633 23.9297C91.3633 22.9297 91.3633 22.9297 95.3633 22.9297ZM94.3633 29.9297C94.3633 31.9097 94.3633 33.8897 94.3633 35.9297C95.6833 35.2697 97.0033 34.6097 98.3633 33.9297C97.0433 32.6097 95.7233 31.2897 94.3633 29.9297Z" fill="#646464"/>
<path d="M234.113 178.617C235.227 178.772 235.227 178.772 236.363 178.93C236.693 180.25 237.023 181.57 237.363 182.93C236.559 183.177 235.755 183.425 234.926 183.68C232.192 184.652 232.192 184.652 231.551 187.055C231.489 187.673 231.427 188.292 231.363 188.93C234.289 188.496 235.451 187.853 237.738 185.867C240.363 183.93 240.363 183.93 243.488 183.43C246.363 183.93 246.363 183.93 248.301 185.555C249.786 188.874 249.469 190.475 248.363 193.93C246.905 196.538 245.653 197.843 243.363 199.93C240.051 199.805 240.051 199.805 237.363 198.93C237.693 197.61 238.023 196.29 238.363 194.93C240.013 194.93 241.663 194.93 243.363 194.93C243.693 193.28 244.023 191.63 244.363 189.93C243.703 189.6 243.043 189.27 242.363 188.93C241.601 189.597 241.601 189.597 240.824 190.277C235.184 194.914 235.184 194.914 230.988 194.992C228.363 193.93 228.363 193.93 226.363 190.93C226.511 186.937 227.061 184.436 229.113 180.992C231.363 178.93 231.363 178.93 234.113 178.617Z" fill="#686868"/>
<path d="M129.426 237.928C132.697 238.565 134.918 239.585 137.363 241.928C137.033 243.578 136.703 245.228 136.363 246.928C134.426 246.616 134.426 246.616 132.363 245.928C132.033 244.938 131.703 243.948 131.363 242.928C129.713 242.928 128.063 242.928 126.363 242.928C127.549 246.486 128.189 246.614 131.363 248.303C135.214 250.605 135.214 250.605 136.551 253.491C136.304 256.694 135.793 257.803 133.363 259.928C129.297 261.079 127.009 261.144 122.988 259.803C120.363 257.928 120.363 257.928 119.488 255.241C119.447 254.478 119.406 253.715 119.363 252.928C120.683 252.598 122.003 252.268 123.363 251.928C123.693 253.248 124.023 254.568 124.363 255.928C126.343 255.928 128.323 255.928 130.363 255.928C130.363 254.938 130.363 253.948 130.363 252.928C129.725 252.625 129.087 252.322 128.43 252.01C127.603 251.591 126.777 251.172 125.926 250.741C125.102 250.335 124.278 249.929 123.43 249.51C121.363 247.928 121.363 247.928 120.457 245.432C120.363 242.928 120.363 242.928 122.301 240.053C125.435 237.879 125.893 237.598 129.426 237.928Z" fill="#686868"/>
<path d="M164.363 235.93C164.693 237.91 165.023 239.89 165.363 241.93C164.043 242.26 162.723 242.59 161.363 242.93C161.363 242.27 161.363 241.61 161.363 240.93C160.043 240.93 158.723 240.93 157.363 240.93C157.508 241.521 157.652 242.113 157.801 242.723C158.772 246.855 159.639 250.653 159.363 254.93C160.353 255.26 161.343 255.59 162.363 255.93C162.363 256.92 162.363 257.91 162.363 258.93C159.393 259.26 156.423 259.59 153.363 259.93C153.033 258.94 152.703 257.95 152.363 256.93C152.693 256.6 153.023 256.27 153.363 255.93C153.273 253.573 153.116 251.218 152.926 248.867C152.773 246.932 152.773 246.932 152.617 244.957C152.533 243.958 152.45 242.959 152.363 241.93C151.373 241.93 150.383 241.93 149.363 241.93C149.363 242.92 149.363 243.91 149.363 244.93C148.043 244.93 146.723 244.93 145.363 244.93C145.363 242.95 145.363 240.97 145.363 238.93C158.47 235.93 158.47 235.93 164.363 235.93Z" fill="#686868"/>
<path d="M133.363 13.9283C133.363 15.9083 133.363 17.8883 133.363 19.9283C130.978 19.3525 128.696 18.7061 126.363 17.9283C127.023 22.8783 127.683 27.8283 128.363 32.9283C129.023 32.9283 129.683 32.9283 130.363 32.9283C130.363 33.9183 130.363 34.9083 130.363 35.9283C127.407 37.4067 124.621 36.9887 121.363 36.9283C121.363 35.9383 121.363 34.9483 121.363 33.9283C122.023 33.9283 122.683 33.9283 123.363 33.9283C122.703 28.9783 122.043 24.0283 121.363 18.9283C120.373 18.9283 119.383 18.9283 118.363 18.9283C118.363 19.9183 118.363 20.9083 118.363 21.9283C117.043 21.9283 115.723 21.9283 114.363 21.9283C114.033 20.2783 113.703 18.6283 113.363 16.9283C119.832 14.4402 126.457 13.7056 133.363 13.9283Z" fill="#636363"/>
<path d="M177.363 19.9297C180.003 20.9197 182.643 21.9097 185.363 22.9297C185.363 23.9197 185.363 24.9097 185.363 25.9297C184.373 25.9297 183.383 25.9297 182.363 25.9297C181.883 27.5127 181.404 29.0961 180.926 30.6797C180.526 32.0023 180.526 32.0023 180.117 33.3516C179.008 37.1447 178.363 39.9206 178.363 43.9297C175.393 42.9397 172.423 41.9497 169.363 40.9297C169.693 39.9397 170.023 38.9497 170.363 37.9297C171.353 37.9297 172.343 37.9297 173.363 37.9297C173.87 36.3486 174.369 34.7647 174.863 33.1797C175.142 32.298 175.42 31.4162 175.707 30.5078C176.528 27.727 176.528 27.727 176.363 23.9297C176.693 22.6097 177.023 21.2897 177.363 19.9297Z" fill="#666666"/>
<path d="M44.3633 176.93C47.455 179.459 48.2726 182.154 49.3633 185.93C48.3733 186.26 47.3833 186.59 46.3633 186.93C45.7033 186.6 45.0433 186.27 44.3633 185.93C41.6911 186.813 41.6911 186.813 38.8008 188.18C37.8095 188.618 36.8182 189.056 35.7969 189.508C33.0568 190.75 33.0568 190.75 32.3633 193.93C31.3733 194.26 30.3833 194.59 29.3633 194.93C26.3633 189.305 26.3633 189.305 26.3633 185.93C27.3327 185.868 28.302 185.806 29.3008 185.742C34.1858 185.054 38.3625 182.749 42.3633 179.93C43.0233 178.94 43.6833 177.95 44.3633 176.93Z" fill="#676767"/>
<path d="M200.363 216.93C201.353 217.26 202.343 217.59 203.363 217.93C203.425 218.92 203.425 218.92 203.488 219.93C204.922 224.846 208.035 229.619 212.562 232.168C213.157 232.419 213.751 232.671 214.363 232.93C213.222 236.353 212.362 237.077 209.363 238.93C208.373 238.93 207.383 238.93 206.363 238.93C206.322 238.27 206.281 237.61 206.238 236.93C205.13 233.131 203.113 230.742 200.641 227.699C199.363 225.93 199.363 225.93 199.363 223.93C198.043 223.93 196.723 223.93 195.363 223.93C195.744 221.167 196.199 220.088 198.238 218.117C198.94 217.725 199.641 217.333 200.363 216.93Z" fill="#646464"/>
</svg>
